<svg id="svg" version="1.1" xmlns="http://www.w3.org/2000/svg" xmlns:xlink="http://www.w3.org/1999/xlink" width="400" height="400" viewBox="0, 0, 400,400"><g id="svgg"><path id="path0" d="M65.702 136.500 C 40.576 187.373,46.833 248.600,81.843 294.448 C 83.786 296.992,85.728 299.382,88.306 302.400 C 90.936 305.478,100.164 314.679,102.768 316.819 C 103.960 317.798,105.220 318.870,105.568 319.201 C 106.136 319.740,111.611 323.927,115.793 327.021 C 121.264 331.069,138.698 340.800,140.479 340.800 C 140.778 340.800,141.446 341.097,141.965 341.461 C 142.863 342.090,146.917 343.762,150.800 345.106 C 151.790 345.448,152.960 345.863,153.400 346.028 C 157.147 347.429,163.803 349.264,169.400 350.438 C 171.380 350.854,174.260 351.461,175.800 351.787 C 183.764 353.476,201.352 354.703,208.573 354.074 C 211.448 353.824,215.510 353.512,217.600 353.380 C 223.679 352.998,228.588 352.224,240.400 349.786 C 245.013 348.833,253.459 346.397,256.200 345.229 C 256.640 345.041,258.509 344.315,260.354 343.614 C 271.778 339.278,284.758 331.997,293.432 325.061 C 302.792 317.576,302.502 318.053,299.091 315.759 C 297.050 314.387,295.279 313.050,294.200 312.066 C 291.886 309.957,287.267 306.400,286.841 306.400 C 286.572 306.400,285.400 305.500,284.237 304.400 C 283.074 303.300,281.819 302.400,281.449 302.400 C 281.078 302.400,280.675 302.140,280.553 301.821 C 280.330 301.240,276.322 297.925,271.339 294.200 C 269.868 293.100,268.289 291.840,267.832 291.400 C 267.374 290.960,265.939 289.885,264.642 289.012 C 263.346 288.138,261.772 286.910,261.145 286.283 C 259.520 284.658,254.059 280.800,253.383 280.800 C 253.071 280.800,251.825 281.434,250.615 282.208 C 246.938 284.559,239.692 287.828,234.200 289.612 C 231.340 290.540,228.640 291.443,228.200 291.618 C 227.760 291.793,226.770 292.037,226.000 292.160 C 225.230 292.283,222.620 292.743,220.200 293.183 C 207.354 295.514,190.323 294.866,179.000 291.615 C 176.115 290.787,173.369 289.859,173.000 289.587 C 172.780 289.425,171.976 289.159,171.213 288.995 C 170.450 288.832,169.550 288.554,169.213 288.377 C 168.876 288.200,166.170 286.854,163.200 285.385 C 160.230 283.915,157.530 282.500,157.200 282.239 C 156.870 281.979,156.101 281.516,155.491 281.210 C 150.531 278.728,135.577 265.355,132.400 260.562 C 132.070 260.064,130.802 258.339,129.583 256.728 C 128.364 255.118,126.756 252.774,126.011 251.521 C 125.266 250.267,124.481 249.350,124.266 249.483 C 124.052 249.615,123.993 249.534,124.136 249.303 C 124.279 249.072,123.598 247.379,122.622 245.541 C 111.758 225.077,109.419 197.867,116.565 175.100 C 117.118 173.341,117.111 173.200,116.477 173.200 C 116.100 173.200,115.344 172.794,114.796 172.298 C 114.248 171.802,112.090 170.094,110.000 168.502 C 102.410 162.721,98.431 159.647,93.509 155.762 C 90.749 153.583,87.549 151.080,86.399 150.200 C 85.248 149.320,83.923 148.290,83.454 147.911 C 82.638 147.253,80.894 145.894,77.400 143.195 C 76.520 142.515,73.753 140.348,71.250 138.380 C 65.887 134.160,66.719 134.442,65.702 136.500 " stroke="none" fill="#94b03d" fill-rule="evenodd"></path><path id="path1" d="M202.584 174.899 C 202.479 175.175,202.440 188.270,202.497 204.000 L 202.600 232.600 243.355 232.702 L 284.110 232.804 283.845 235.057 C 283.171 240.794,278.710 251.907,273.994 259.600 C 270.686 264.996,263.512 272.714,257.829 276.991 C 253.757 280.056,253.366 279.330,263.000 286.588 C 265.860 288.743,268.470 290.763,268.800 291.078 C 269.130 291.392,270.572 292.493,272.005 293.525 C 273.438 294.556,275.713 296.300,277.061 297.400 C 279.538 299.422,281.230 300.742,283.218 302.200 C 285.476 303.857,291.043 308.219,292.125 309.178 C 292.743 309.727,294.119 310.811,295.183 311.588 C 296.246 312.365,298.235 313.855,299.602 314.900 C 303.243 317.683,302.549 318.010,310.302 309.861 C 313.172 306.844,313.913 305.944,318.607 299.767 C 323.409 293.447,329.217 283.908,331.981 277.800 C 332.479 276.700,333.318 274.879,333.846 273.754 C 334.374 272.629,335.164 270.669,335.601 269.398 C 336.038 268.127,336.547 266.887,336.733 266.644 C 337.155 266.087,338.408 262.480,339.804 257.800 C 340.394 255.820,341.040 253.787,341.239 253.281 C 341.437 252.776,341.600 251.867,341.600 251.261 C 341.600 250.656,341.755 249.989,341.945 249.780 C 342.333 249.352,343.493 244.879,344.039 241.700 C 344.238 240.545,344.588 238.565,344.818 237.300 C 347.956 220.045,348.262 196.663,345.561 180.400 C 345.324 178.970,345.011 177.080,344.865 176.200 L 344.600 174.600 273.688 174.499 C 217.169 174.418,202.737 174.499,202.584 174.899 " stroke="none" fill="#637cf3" fill-rule="evenodd"></path><path id="path2" d="M191.200 51.433 C 190.430 51.521,187.820 51.792,185.400 52.036 C 171.749 53.411,153.821 58.159,141.800 63.583 C 136.833 65.824,133.616 67.415,130.240 69.302 C 128.238 70.421,126.150 71.572,125.600 71.861 C 122.982 73.234,109.252 82.581,108.400 83.570 C 108.290 83.697,106.580 85.145,104.600 86.786 C 92.360 96.933,80.806 110.509,71.906 125.200 C 69.783 128.704,66.632 134.780,66.850 134.950 C 66.932 135.015,68.980 136.620,71.400 138.517 C 73.820 140.414,76.520 142.520,77.400 143.198 C 80.435 145.537,82.603 147.224,83.454 147.911 C 83.923 148.290,85.248 149.320,86.399 150.200 C 87.549 151.080,90.749 153.583,93.509 155.762 C 98.431 159.647,102.410 162.721,110.000 168.502 C 112.090 170.094,114.248 171.802,114.796 172.298 C 116.381 173.734,117.049 173.469,117.812 171.100 C 118.906 167.702,124.529 156.496,127.095 152.600 C 150.080 117.704,191.631 102.751,230.315 115.454 C 239.973 118.625,249.987 124.431,258.163 131.599 L 260.527 133.670 281.863 112.337 C 293.599 100.603,303.200 90.813,303.200 90.581 C 303.200 89.590,291.443 80.056,284.622 75.516 C 265.989 63.114,246.107 55.717,222.400 52.368 C 216.878 51.588,195.489 50.947,191.200 51.433 " stroke="none" fill="#cb4c3b" fill-rule="evenodd"></path><path id="path3" d="M0.000 200.000 L 0.000 400.000 200.000 400.000 L 400.000 400.000 400.000 200.000 L 400.000 0.000 200.000 0.000 L 0.000 0.000 0.000 200.000 M214.200 51.400 C 235.283 53.249,250.975 57.450,267.914 65.781 C 276.873 70.187,284.960 75.112,291.228 79.980 C 292.234 80.761,293.666 81.850,294.412 82.400 C 295.813 83.433,301.617 88.432,302.937 89.742 C 303.834 90.633,306.702 87.555,280.359 113.969 L 260.519 133.863 256.918 130.815 C 220.190 99.728,163.367 106.306,132.643 145.200 C 107.390 177.169,105.599 220.426,128.138 254.000 C 149.129 285.267,184.793 299.615,223.000 292.163 C 242.678 288.325,262.310 276.458,271.577 262.800 C 272.547 261.370,273.826 259.480,274.419 258.600 C 275.012 257.720,276.259 255.470,277.190 253.600 C 278.122 251.730,279.063 249.859,279.282 249.441 C 280.723 246.694,283.977 235.823,283.993 233.700 L 284.000 232.800 243.243 232.800 C 206.319 232.800,202.463 232.740,202.241 232.163 C 201.852 231.148,202.007 174.843,202.400 174.600 C 202.657 174.441,287.703 174.320,343.855 174.399 C 346.285 174.402,348.347 201.371,347.188 218.000 C 345.920 236.184,341.184 257.629,335.869 269.246 C 335.529 269.991,334.768 271.770,334.178 273.200 C 320.303 306.857,289.997 334.503,253.905 346.427 C 195.499 365.722,132.390 350.170,91.389 306.375 C 43.143 254.842,36.923 176.287,76.460 117.800 C 78.393 114.940,80.925 111.413,82.087 109.962 C 83.249 108.511,84.740 106.638,85.400 105.799 C 114.250 69.139,166.212 47.193,214.200 51.400 " stroke="none" fill="#fbfbfb" fill-rule="evenodd"></path><path id="path4" d="M198.480 51.098 C 200.394 51.171,203.634 51.171,205.680 51.098 C 207.726 51.026,206.160 50.966,202.200 50.965 C 198.240 50.965,196.566 51.024,198.480 51.098 M212.500 51.476 C 212.885 51.576,213.515 51.576,213.900 51.476 C 214.285 51.375,213.970 51.293,213.200 51.293 C 212.430 51.293,212.115 51.375,212.500 51.476 M246.600 57.600 C 247.040 57.789,247.670 57.944,248.000 57.944 C 248.378 57.944,248.304 57.817,247.800 57.600 C 247.360 57.411,246.730 57.256,246.400 57.256 C 246.022 57.256,246.096 57.383,246.600 57.600 M115.400 78.235 L 114.200 79.266 115.500 78.406 C 116.215 77.933,116.800 77.468,116.800 77.373 C 116.800 77.073,116.631 77.178,115.400 78.235 M300.000 87.400 C 300.746 88.170,301.447 88.800,301.557 88.800 C 301.667 88.800,301.146 88.170,300.400 87.400 C 299.654 86.630,298.953 86.000,298.843 86.000 C 298.733 86.000,299.254 86.630,300.000 87.400 M94.791 95.500 L 91.400 99.000 94.900 95.609 C 98.151 92.459,98.582 92.000,98.291 92.000 C 98.231 92.000,96.656 93.575,94.791 95.500 M190.100 111.876 C 190.485 111.976,191.115 111.976,191.500 111.876 C 191.885 111.775,191.570 111.693,190.800 111.693 C 190.030 111.693,189.715 111.775,190.100 111.876 M143.775 133.300 L 142.600 134.600 143.900 133.425 C 145.112 132.330,145.384 132.000,145.075 132.000 C 145.006 132.000,144.421 132.585,143.775 133.300 M202.420 174.576 C 202.157 174.893,202.018 175.658,202.111 176.276 C 202.275 177.368,202.282 177.364,202.340 176.120 C 202.375 175.372,202.691 174.670,203.100 174.432 C 203.485 174.208,203.597 174.019,203.349 174.012 C 203.101 174.005,202.683 174.259,202.420 174.576 M202.189 205.200 C 202.189 219.610,202.239 225.505,202.300 218.300 C 202.361 211.095,202.361 199.305,202.300 192.100 C 202.239 184.895,202.189 190.790,202.189 205.200 M347.301 199.800 C 347.305 200.680,347.387 200.993,347.483 200.495 C 347.579 199.998,347.575 199.278,347.475 198.895 C 347.375 198.513,347.296 198.920,347.301 199.800 M347.309 212.800 C 347.309 213.790,347.387 214.195,347.482 213.700 C 347.578 213.205,347.578 212.395,347.482 211.900 C 347.387 211.405,347.309 211.810,347.309 212.800 M346.893 219.600 C 346.893 220.370,346.975 220.685,347.076 220.300 C 347.176 219.915,347.176 219.285,347.076 218.900 C 346.975 218.515,346.893 218.830,346.893 219.600 M117.441 233.530 C 117.731 235.166,120.678 241.961,122.817 245.927 C 123.690 247.545,124.286 249.062,124.140 249.297 C 123.995 249.531,124.052 249.615,124.266 249.483 C 124.481 249.350,125.266 250.267,126.011 251.521 C 126.756 252.774,128.364 255.120,129.583 256.734 C 130.802 258.348,132.208 260.283,132.706 261.034 C 133.204 261.785,133.804 262.400,134.038 262.400 C 134.273 262.400,133.628 261.365,132.606 260.100 C 126.849 252.976,121.319 243.202,117.952 234.200 C 117.406 232.740,117.268 232.559,117.441 233.530 M272.511 261.300 C 271.729 262.311,271.463 262.932,271.936 262.640 C 272.410 262.347,273.357 260.800,273.063 260.800 C 272.972 260.800,272.724 261.025,272.511 261.300 M135.958 264.694 C 139.515 269.058,151.561 279.243,155.491 281.210 C 156.101 281.516,156.870 281.977,157.200 282.236 C 158.574 283.313,169.365 288.522,171.200 288.993 C 171.750 289.135,172.560 289.411,173.000 289.607 C 175.349 290.655,176.989 291.198,177.749 291.178 C 178.217 291.167,176.350 290.349,173.600 289.361 C 159.893 284.438,150.947 278.742,139.425 267.603 C 136.357 264.637,134.946 263.453,135.958 264.694 M67.091 271.900 C 67.529 273.052,72.295 281.337,73.016 282.200 C 73.656 282.965,73.659 282.957,73.103 282.000 C 72.784 281.450,71.306 278.795,69.818 276.100 C 67.288 271.516,66.461 270.242,67.091 271.900 M250.800 281.433 C 245.164 284.869,245.342 284.750,245.836 284.776 C 246.076 284.789,247.770 283.900,249.600 282.800 C 251.430 281.700,253.158 280.800,253.440 280.800 C 254.071 280.800,259.587 284.726,261.145 286.283 C 261.772 286.910,263.346 288.138,264.642 289.012 C 265.939 289.885,267.374 290.960,267.832 291.400 C 268.289 291.840,269.868 293.100,271.339 294.200 C 276.322 297.925,280.330 301.240,280.553 301.821 C 280.675 302.140,281.078 302.400,281.449 302.400 C 281.819 302.400,283.074 303.300,284.237 304.400 C 285.400 305.500,286.572 306.400,286.841 306.400 C 287.267 306.400,291.886 309.957,294.200 312.066 C 295.279 313.050,297.050 314.387,299.091 315.759 C 302.502 318.053,302.792 317.576,293.432 325.061 C 284.747 332.006,271.687 339.328,260.354 343.608 C 258.509 344.304,256.730 345.004,256.400 345.162 C 256.070 345.320,253.848 346.063,251.461 346.812 C 249.075 347.561,247.290 348.230,247.494 348.298 C 249.445 348.948,268.756 340.989,278.600 335.477 C 286.817 330.876,301.366 320.021,304.029 316.503 C 304.482 315.905,304.478 315.874,304.001 316.300 C 303.050 317.148,302.182 316.871,299.602 314.900 C 298.235 313.855,296.246 312.365,295.183 311.588 C 294.119 310.811,292.743 309.727,292.125 309.178 C 291.043 308.219,285.476 303.857,283.218 302.200 C 281.230 300.742,279.538 299.422,277.061 297.400 C 275.713 296.300,273.438 294.556,272.005 293.525 C 270.572 292.493,269.130 291.392,268.800 291.078 C 268.470 290.763,265.860 288.743,263.000 286.588 C 255.753 281.128,254.656 280.153,254.937 279.419 C 255.068 279.078,255.136 278.816,255.087 278.836 C 255.039 278.856,253.110 280.024,250.800 281.433 M74.561 284.900 C 82.331 298.032,99.407 315.930,114.000 326.239 C 125.006 334.015,141.954 343.030,149.200 344.962 C 150.938 345.426,148.240 344.040,145.711 343.169 C 144.505 342.755,142.931 342.052,142.212 341.608 C 141.494 341.163,140.687 340.800,140.421 340.800 C 138.691 340.800,121.161 330.992,115.793 327.021 C 111.611 323.927,106.136 319.740,105.568 319.201 C 105.220 318.870,103.960 317.798,102.768 316.819 C 97.183 312.229,87.588 301.972,81.843 294.448 C 79.246 291.047,78.740 290.335,76.309 286.662 C 73.929 283.066,72.805 281.933,74.561 284.900 M241.400 286.418 C 239.420 287.288,235.747 288.666,233.237 289.479 C 230.727 290.292,228.869 291.023,229.108 291.103 C 230.111 291.437,245.200 285.736,245.200 285.023 C 245.200 284.728,245.477 284.626,241.400 286.418 M178.893 291.427 C 179.220 291.753,183.652 292.777,184.600 292.744 C 185.040 292.729,184.050 292.383,182.400 291.975 C 179.156 291.172,178.543 291.077,178.893 291.427 M223.600 292.037 C 214.875 293.915,199.615 294.668,191.800 293.607 C 188.435 293.149,186.864 293.154,188.800 293.615 C 195.038 295.102,210.902 294.877,220.200 293.172 C 222.620 292.728,225.369 292.259,226.309 292.129 C 227.249 292.000,228.115 291.738,228.233 291.547 C 228.523 291.078,227.607 291.175,223.600 292.037 M309.800 310.312 C 309.580 310.478,308.861 311.240,308.203 312.006 C 307.071 313.323,307.098 313.313,308.703 311.819 C 310.243 310.384,310.592 309.988,310.300 310.006 C 310.245 310.009,310.020 310.147,309.800 310.312 M151.600 345.783 C 151.600 345.971,157.823 348.011,158.321 347.986 C 159.036 347.950,156.432 346.820,155.102 346.590 C 154.278 346.447,153.503 346.166,153.378 345.965 C 153.152 345.599,151.600 345.440,151.600 345.783 M158.840 348.173 C 159.065 348.399,165.043 350.000,165.659 350.000 C 166.774 350.000,165.473 349.510,162.423 348.782 C 158.998 347.964,158.555 347.889,158.840 348.173 M244.000 348.888 C 243.230 349.116,242.783 349.371,243.006 349.454 C 243.229 349.536,244.219 349.351,245.206 349.041 C 246.193 348.732,246.640 348.478,246.200 348.476 C 245.760 348.474,244.770 348.659,244.000 348.888 M239.000 350.047 C 238.120 350.244,235.330 350.845,232.800 351.382 C 230.024 351.971,229.073 352.272,230.400 352.142 C 232.613 351.925,242.056 350.040,242.367 349.754 C 242.646 349.496,240.696 349.666,239.000 350.047 M168.600 350.772 C 169.646 351.193,177.252 352.482,177.460 352.274 C 177.548 352.186,176.490 351.896,175.110 351.630 C 173.729 351.363,171.845 350.978,170.923 350.773 C 168.774 350.295,167.412 350.295,168.600 350.772 M179.600 352.775 C 181.681 353.315,193.376 354.411,196.171 354.328 C 198.525 354.258,198.538 354.252,196.600 354.124 C 194.876 354.011,186.565 353.244,180.174 352.609 C 178.424 352.435,178.359 352.453,179.600 352.775 M224.000 352.800 C 222.629 353.089,222.625 353.095,223.800 353.124 C 224.460 353.141,225.720 353.005,226.600 352.823 L 228.200 352.492 226.800 352.499 C 226.030 352.502,224.770 352.638,224.000 352.800 M213.000 353.646 C 210.580 353.829,208.240 354.062,207.800 354.163 C 206.624 354.435,216.960 353.969,220.000 353.614 L 222.600 353.309 220.000 353.311 C 218.570 353.312,215.420 353.463,213.000 353.646 " stroke="none" fill="#84a89f" fill-rule="evenodd"></path></g></svg>